Coordinates
version=1
nRows=5
nColumns=46
inDegrees=yes

Units are S.I. units (second, meters, Newtons, ...)
Angles are in degrees.

endheader
time	pelvis_tilt	pelvis_list	pelvis_rotation	pelvis_tx	pelvis_ty	pelvis_tz	bb_angle	bb_tx	bb_ty	bb_tz	hip_flexion_r	hip_adduction_r	hip_rotation_r	knee_angle_r	knee_angle_r_beta	ankle_angle_r	subtalar_angle_r	mtp_angle_r	crank_angle_r	hip_flexion_l	hip_adduction_l	hip_rotation_l	knee_angle_l	knee_angle_l_beta	ankle_angle_l	subtalar_angle_l	mtp_angle_l	crank_angle_l	lumbar_extension	lumbar_bending	lumbar_rotation	arm_flex_r	arm_add_r	arm_rot_r	elbow_flex_r	pro_sup_r	wrist_flex_r	wrist_dev_r	arm_flex_l	arm_add_l	arm_rot_l	elbow_flex_l	pro_sup_l	wrist_flex_l	wrist_dev_l
      5.00500000	    -15.07864462	      4.61273692	      6.30789727	      0.15176227	      1.14928326	     -0.23029281	      0.00000000	      0.50000000	      0.00000000	      0.25000000	     52.69570248	    -14.56440579	     -7.53930446	     74.76192132	      1.30484168	      1.16419762	     -6.32780292	      0.00000000	      0.00000000	     83.01534328	     -0.22481985	      0.74309779	     88.47330413	      1.54415046	      7.58216530	      6.25448485	      0.00000000	      0.00000000	    -64.47763328	     -3.29847754	     -4.07584725	     89.46386351	    -26.18886855	     35.78945739	     62.09886503	     31.03695591	      0.00000000	      0.00000000	     89.76904542	     -7.02044925	     32.65247017	     64.11935014	     30.08105772	      0.00000000	      0.00000000
      5.01000000	    -15.07856026	      4.46603205	      6.22609474	      0.15205742	      1.14799152	     -0.22953417	      0.00000000	      0.50000000	      0.00000000	      0.25000000	     53.90039625	    -14.28034136	     -6.90463952	     77.21580198	      1.34766998	      0.77853583	     -6.64652433	      0.00000000	      0.00000000	     81.30800200	     -0.40225433	      0.63950988	     86.13490021	      1.50333761	      9.49221105	      6.61094347	      0.00000000	      0.00000000	    -64.43319505	     -3.23807743	     -3.56914196	     89.43929646	    -26.46662543	     35.54044697	     62.30430019	     31.14824636	      0.00000000	      0.00000000	     89.76677033	     -7.08097491	     32.85126830	     64.19329336	     29.97427500	      0.00000000	      0.00000000
      5.01500000	    -15.01308769	      4.29962687	      6.16833330	      0.15239827	      1.14671357	     -0.22916885	      0.00000000	      0.50000000	      0.00000000	      0.25000000	     55.07459025	    -14.02975657	     -6.31896563	     79.66656373	      1.39044384	      0.41973703	     -6.74313488	      0.00000000	      0.00000000	     79.52259730	     -0.46906709	      0.52760045	     83.74418058	      1.46161168	     11.11260201	      6.47669209	      0.00000000	      0.00000000	    -64.40637731	     -3.10590542	     -3.07574696	     89.41011451	    -26.74922374	     35.32701061	     62.53538535	     31.27757981	      0.00000000	      0.00000000	     89.76389720	     -7.14717421	     33.05346114	     64.23458219	     29.87291764	      0.00000000	      0.00000000
      5.02000000	    -14.88264860	      4.09277264	      6.10092563	      0.15280897	      1.14553633	     -0.22900497	      0.00000000	      0.50000000	      0.00000000	      0.25000000	     56.23031542	    -13.77135971	     -5.79086860	     82.10210629	      1.43295208	     -0.09376458	     -6.84004691	      0.00000000	      0.00000000	     77.65582530	     -0.49122804	      0.45011794	     81.29385213	      1.41884538	     12.44898641	      6.02454168	      0.00000000	      0.00000000	    -64.40027511	     -2.89753571	     -2.54544525	     89.38559993	    -26.93715652	     35.17898940	     62.70861570	     31.39673519	      0.00000000	      0.00000000	     89.75812246	     -7.28392030	     33.27901059	     64.21259330	     29.79535435	      0.00000000	      0.00000000
      5.02500000	    -14.74961280	      3.58483982	      5.98864745	      0.15313412	      1.14398081	     -0.22902831	      0.00000000	      0.50000000	      0.00000000	      0.25000000	     57.40280635	    -13.22567019	     -5.42796480	     84.49607741	      1.47473476	     -0.52598684	     -6.87943236	      0.00000000	      0.00000000	     75.96431680	     -0.64470413	      0.71055679	     78.96362137	      1.37817518	     13.27522432	      5.63599149	      0.00000000	      0.00000000	    -64.31822732	     -2.43359311	     -1.75147386	     89.41320388	    -26.87042298	     35.08347332	     62.81909994	     31.46938056	      0.00000000	      0.00000000	     89.74045586	     -7.48464423	     33.25338739	     64.20757619	     29.80289500	      0.00000000	      0.00000000
